<svg width="113" height="29" viewBox="0 0 113 29" fill="none" xmlns="http://www.w3.org/2000/svg">
<path d="M27.944 19.1786C27.3784 17.254 26.4735 15.4426 25.0031 13.9708C20.5918 9.55563 13.5789 9.55563 9.16754 13.9708C7.69709 15.4426 6.67905 17.3672 6.11353 19.2918" stroke="#C79EFF" stroke-miterlimit="10" stroke-linecap="round" stroke-linejoin="round"/>
<path d="M28.6183 14.5H1.09253" stroke="#AC3FFF" stroke-opacity="0.2" stroke-linecap="round"/>
<path d="M1.71069 9.82153C2.16314 11.8594 3.18114 13.5575 4.76469 15.1425C9.17603 19.5577 16.1889 19.5577 20.6003 15.1425C22.0707 13.6707 23.0887 11.7461 23.6543 9.82153" stroke="#646464" stroke-miterlimit="10" stroke-linecap="round" stroke-linejoin="round"/>
<path d="M37.6112 20.9727C36.7334 20.9727 36.0535 20.7252 35.5714 20.2303C35.1016 19.7354 34.8667 19.0487 34.8667 18.1702V7.1084H36.1833V18.0588C36.1833 18.6404 36.3193 19.0858 36.5913 19.3951C36.8632 19.6921 37.2712 19.8406 37.8151 19.8406C38.1613 19.8406 38.458 19.7849 38.7052 19.6735L38.7979 20.7686C38.4147 20.9047 38.0191 20.9727 37.6112 20.9727ZM44.3949 20.9727C43.4554 20.9727 42.6085 20.7624 41.8544 20.3417C41.1004 19.9086 40.507 19.3147 40.0743 18.5599C39.6416 17.8052 39.4252 16.9514 39.4252 15.9986C39.4252 15.0459 39.6416 14.1921 40.0743 13.4374C40.507 12.6826 41.1004 12.0948 41.8544 11.6742C42.6085 11.2535 43.4554 11.0431 44.3949 11.0431C45.3344 11.0431 46.1813 11.2535 46.9354 11.6742C47.6895 12.0948 48.2767 12.6826 48.697 13.4374C49.1297 14.1921 49.3461 15.0459 49.3461 15.9986C49.3461 16.9514 49.1297 17.8052 48.697 18.5599C48.2767 19.3147 47.6895 19.9086 46.9354 20.3417C46.1813 20.7624 45.3344 20.9727 44.3949 20.9727ZM44.3949 19.8034C45.0872 19.8034 45.7053 19.6488 46.2493 19.3394C46.8056 19.0177 47.2383 18.5661 47.5473 17.9846C47.8564 17.403 48.0109 16.741 48.0109 15.9986C48.0109 15.2562 47.8564 14.5943 47.5473 14.0127C47.2383 13.4312 46.8056 12.9857 46.2493 12.6764C45.7053 12.3547 45.0872 12.1938 44.3949 12.1938C43.7026 12.1938 43.0783 12.3547 42.522 12.6764C41.9781 12.9857 41.5454 13.4312 41.224 14.0127C40.9149 14.5943 40.7604 15.2562 40.7604 15.9986C40.7604 16.741 40.9149 17.403 41.224 17.9846C41.5454 18.5661 41.9781 19.0177 42.522 19.3394C43.0783 19.6488 43.7026 19.8034 44.3949 19.8034ZM61.0647 11.1174V19.6921C61.0647 21.3501 60.6568 22.5751 59.8409 23.367C59.0371 24.1712 57.8196 24.5734 56.1878 24.5734C55.2853 24.5734 54.4261 24.4372 53.6102 24.165C52.8066 23.9052 52.1515 23.5402 51.6446 23.07L52.3122 22.0678C52.782 22.4884 53.3506 22.8164 54.0182 23.0514C54.6981 23.2865 55.4089 23.4041 56.1507 23.4041C57.3869 23.4041 58.2954 23.1133 58.8766 22.5318C59.4578 21.9626 59.7481 21.0717 59.7481 19.8591V18.6156C59.3402 19.2343 58.8024 19.7044 58.1348 20.0262C57.4796 20.3479 56.7503 20.5087 55.9467 20.5087C55.0319 20.5087 54.1974 20.3108 53.4433 19.9148C52.7016 19.5065 52.1144 18.9435 51.6817 18.2258C51.2614 17.4958 51.0512 16.673 51.0512 15.7574C51.0512 14.8417 51.2614 14.0251 51.6817 13.3074C52.1144 12.5898 52.7016 12.033 53.4433 11.637C54.1851 11.2411 55.0195 11.0431 55.9467 11.0431C56.775 11.0431 57.5229 11.2102 58.1905 11.5442C58.858 11.8783 59.3958 12.3609 59.8038 12.9919V11.1174H61.0647ZM56.0765 19.3394C56.7812 19.3394 57.4179 19.191 57.9865 18.894C58.555 18.5847 58.9942 18.1578 59.3031 17.6134C59.6247 17.0689 59.7852 16.4503 59.7852 15.7574C59.7852 15.0644 59.6247 14.452 59.3031 13.9199C58.9942 13.3755 58.555 12.9548 57.9865 12.6578C57.4302 12.3485 56.7935 12.1938 56.0765 12.1938C55.3719 12.1938 54.7352 12.3423 54.1665 12.6393C53.6102 12.9362 53.1714 13.3569 52.8499 13.9014C52.5409 14.4458 52.3863 15.0644 52.3863 15.7574C52.3863 16.4503 52.5409 17.0689 52.8499 17.6134C53.1714 18.1578 53.6102 18.5847 54.1665 18.894C54.7352 19.191 55.3719 19.3394 56.0765 19.3394ZM68.7337 20.9727C67.7937 20.9727 66.9471 20.7624 66.1932 20.3417C65.4387 19.9086 64.8453 19.3147 64.413 18.5599C63.9801 17.8052 63.764 16.9514 63.764 15.9986C63.764 15.0459 63.9801 14.1921 64.413 13.4374C64.8453 12.6826 65.4387 12.0948 66.1932 11.6742C66.9471 11.2535 67.7937 11.0431 68.7337 11.0431C69.673 11.0431 70.5197 11.2535 71.2741 11.6742C72.0281 12.0948 72.6151 12.6826 73.0358 13.4374C73.4681 14.1921 73.6848 15.0459 73.6848 15.9986C73.6848 16.9514 73.4681 17.8052 73.0358 18.5599C72.6151 19.3147 72.0281 19.9086 71.2741 20.3417C70.5197 20.7624 69.673 20.9727 68.7337 20.9727ZM68.7337 19.8034C69.4256 19.8034 70.0439 19.6488 70.588 19.3394C71.1443 19.0177 71.5766 18.5661 71.8861 17.9846C72.195 17.403 72.3497 16.741 72.3497 15.9986C72.3497 15.2562 72.195 14.5943 71.8861 14.0127C71.5766 13.4312 71.1443 12.9857 70.588 12.6764C70.0439 12.3547 69.4256 12.1938 68.7337 12.1938C68.0412 12.1938 67.4171 12.3547 66.8608 12.6764C66.3166 12.9857 65.8838 13.4312 65.5627 14.0127C65.2533 14.5943 65.0991 15.2562 65.0991 15.9986C65.0991 16.741 65.2533 17.403 65.5627 17.9846C65.8838 18.5661 66.3166 19.0177 66.8608 19.3394C67.4171 19.6488 68.0412 19.8034 68.7337 19.8034Z" fill="#8C3DFB"/>
<path d="M81.175 20.2862C80.9276 20.5089 80.6251 20.6822 80.2664 20.8059C79.9077 20.9172 79.531 20.9729 79.1353 20.9729C78.2202 20.9729 77.5156 20.7254 77.0213 20.2305C76.527 19.7356 76.2795 19.0365 76.2795 18.1332V8.98315H77.5961V11.1176H80.5446V12.2312H77.5961V18.059C77.5961 18.6406 77.7381 19.086 78.0226 19.3953C78.3072 19.6923 78.7209 19.8408 79.2651 19.8408C79.8585 19.8408 80.3406 19.6737 80.7115 19.3396L81.175 20.2862ZM84.8223 13.0292C85.1318 12.3734 85.589 11.8785 86.1946 11.5444C86.8129 11.2104 87.5732 11.0433 88.4754 11.0433V12.324L88.1602 12.3054C87.1345 12.3054 86.3308 12.6209 85.7495 13.252C85.1689 13.883 84.878 14.7677 84.878 15.906V20.8801H83.5614V11.1176H84.8223V13.0292ZM94.9414 19.8036C95.5469 19.8036 96.1032 19.6985 96.6103 19.4881C97.1295 19.2654 97.5682 18.9437 97.9269 18.523L98.6686 19.3768C98.2357 19.8964 97.698 20.2924 97.0553 20.5646C96.4121 20.8368 95.7016 20.9729 94.9228 20.9729C93.9214 20.9729 93.0314 20.7625 92.2525 20.3419C91.4737 19.9088 90.8676 19.3149 90.4353 18.5601C90.0024 17.8054 89.7862 16.9516 89.7862 15.9988C89.7862 15.0461 89.9902 14.1923 90.3982 13.4376C90.8183 12.6828 91.3932 12.095 92.1227 11.6744C92.8517 11.2537 93.6804 11.0433 94.6076 11.0433C95.4727 11.0433 96.2516 11.2413 96.9441 11.6372C97.6487 12.0332 98.205 12.5838 98.613 13.2891C99.0331 13.9944 99.2556 14.7986 99.2805 15.7019L91.2697 17.2609C91.5166 18.0528 91.9616 18.6777 92.6049 19.1355C93.2597 19.5809 94.0385 19.8036 94.9414 19.8036ZM94.6076 12.1755C93.9272 12.1755 93.3153 12.3363 92.7717 12.658C92.2398 12.9673 91.8197 13.4066 91.5108 13.9758C91.2141 14.5326 91.0657 15.176 91.0657 15.906C91.0657 16.0916 91.0715 16.2278 91.0843 16.3144L97.9639 14.978C97.8156 14.1614 97.4384 13.4932 96.8328 12.9736C96.2266 12.4415 95.4849 12.1755 94.6076 12.1755ZM106.93 11.0433C108.154 11.0433 109.124 11.4022 109.841 12.1198C110.571 12.8251 110.935 13.8582 110.935 15.2193V20.8801H109.619V15.3492C109.619 14.3346 109.365 13.5613 108.858 13.0292C108.352 12.4972 107.629 12.2312 106.689 12.2312C105.638 12.2312 104.804 12.5467 104.185 13.1777C103.58 13.7964 103.277 14.6563 103.277 15.7576V20.8801H101.96V11.1176H103.221V12.9179C103.58 12.324 104.074 11.8662 104.705 11.5444C105.348 11.2104 106.09 11.0433 106.93 11.0433Z" fill="#646464"/>
</svg>
